<?xml version="1.0" encoding="UTF-8" standalone="no"?>
<svg
   xmlns:dc="http://purl.org/dc/elements/1.1/"
   xmlns:cc="http://creativecommons.org/ns#"
   xmlns:rdf="http://www.w3.org/1999/02/22-rdf-syntax-ns#"
   xmlns:svg="http://www.w3.org/2000/svg"
   xmlns="http://www.w3.org/2000/svg"
   xmlns:sodipodi="http://sodipodi.sourceforge.net/DTD/sodipodi-0.dtd"
   xmlns:inkscape="http://www.inkscape.org/namespaces/inkscape"
   id="svg4946"
   version="1.1"
   viewBox="0 0 12.7 12.7"
   height="48"
   width="48"
   sodipodi:docname="aiavatar.svg"
   inkscape:version="0.92.3 (2405546, 2018-03-11)">
  <sodipodi:namedview
     pagecolor="#ffffff"
     bordercolor="#666666"
     borderopacity="1"
     objecttolerance="10"
     gridtolerance="10"
     guidetolerance="10"
     inkscape:pageopacity="0"
     inkscape:pageshadow="2"
     inkscape:window-width="1920"
     inkscape:window-height="1057"
     id="namedview1049"
     showgrid="false"
     inkscape:zoom="6.5260066"
     inkscape:cx="37.364995"
     inkscape:cy="20.556915"
     inkscape:window-x="0"
     inkscape:window-y="0"
     inkscape:window-maximized="1"
     inkscape:current-layer="svg4946" />
  <defs
     id="defs4940">
    <inkscape:path-effect
       effect="join_type"
       id="path-effect2659"
       is_visible="true"
       linecap_type="round"
       line_width="0.45"
       linejoin_type="extrp_arc"
       miter_limit="100"
       attempt_force_join="true" />
    <inkscape:path-effect
       effect="join_type"
       id="path-effect2655"
       is_visible="true"
       linecap_type="round"
       line_width="0.45"
       linejoin_type="extrp_arc"
       miter_limit="100"
       attempt_force_join="true" />
    <inkscape:path-effect
       effect="join_type"
       id="path-effect2649"
       is_visible="true"
       linecap_type="round"
       line_width="0.45"
       linejoin_type="extrp_arc"
       miter_limit="100"
       attempt_force_join="true" />
    <inkscape:path-effect
       effect="join_type"
       id="path-effect2645"
       is_visible="true"
       linecap_type="round"
       line_width="0.45"
       linejoin_type="extrp_arc"
       miter_limit="100"
       attempt_force_join="true" />
    <inkscape:path-effect
       effect="join_type"
       id="path-effect2641"
       is_visible="true"
       linecap_type="round"
       line_width="0.37766716"
       linejoin_type="extrp_arc"
       miter_limit="100"
       attempt_force_join="true" />
    <inkscape:path-effect
       effect="join_type"
       id="path-effect2465"
       is_visible="true"
       linecap_type="round"
       line_width="0.26458332"
       linejoin_type="extrp_arc"
       miter_limit="100"
       attempt_force_join="true" />
    <inkscape:path-effect
       effect="join_type"
       id="path-effect2463"
       is_visible="true"
       linecap_type="round"
       line_width="0.26458332"
       linejoin_type="extrp_arc"
       miter_limit="100"
       attempt_force_join="true" />
    <inkscape:path-effect
       effect="join_type"
       id="path-effect2461"
       is_visible="true"
       linecap_type="round"
       line_width="0.26458332"
       linejoin_type="extrp_arc"
       miter_limit="100"
       attempt_force_join="true" />
    <inkscape:path-effect
       effect="join_type"
       id="path-effect2459"
       is_visible="true"
       linecap_type="round"
       line_width="0.26458332"
       linejoin_type="extrp_arc"
       miter_limit="100"
       attempt_force_join="true" />
    <inkscape:path-effect
       effect="join_type"
       id="path-effect2457"
       is_visible="true"
       linecap_type="round"
       line_width="0.26458332"
       linejoin_type="extrp_arc"
       miter_limit="100"
       attempt_force_join="true" />
    <inkscape:path-effect
       effect="join_type"
       id="path-effect2455"
       is_visible="true"
       linecap_type="round"
       line_width="0.26458332"
       linejoin_type="extrp_arc"
       miter_limit="100"
       attempt_force_join="true" />
    <inkscape:path-effect
       effect="join_type"
       id="path-effect2453"
       is_visible="true"
       linecap_type="round"
       line_width="0.26458332"
       linejoin_type="extrp_arc"
       miter_limit="100"
       attempt_force_join="true" />
    <inkscape:path-effect
       effect="join_type"
       id="path-effect2451"
       is_visible="true"
       linecap_type="round"
       line_width="0.26458332"
       linejoin_type="extrp_arc"
       miter_limit="100"
       attempt_force_join="true" />
    <inkscape:path-effect
       effect="join_type"
       id="path-effect2449"
       is_visible="true"
       linecap_type="round"
       line_width="0.26458332"
       linejoin_type="extrp_arc"
       miter_limit="100"
       attempt_force_join="true" />
    <filter
       height="1.2184"
       y="-0.1092"
       width="1.2184"
       x="-0.1092"
       id="filter5029"
       style="color-interpolation-filters:sRGB">
      <feGaussianBlur
         id="feGaussianBlur5031"
         stdDeviation="0.018624225" />
    </filter>
    <filter
       height="2.3152"
       y="-0.6576"
       width="2.3152"
       x="-0.6576"
       id="filter6157"
       style="color-interpolation-filters:sRGB">
      <feGaussianBlur
         id="feGaussianBlur6159"
         stdDeviation="0.12012569" />
    </filter>
    <filter
       height="1.2112"
       y="-0.1056"
       width="1.2112"
       x="-0.1056"
       id="filter6310"
       style="color-interpolation-filters:sRGB">
      <feGaussianBlur
         id="feGaussianBlur6312"
         stdDeviation="0.01801024" />
    </filter>
    <filter
       height="2.3152001"
       y="-0.65759999"
       width="2.3152001"
       x="-0.65759999"
       id="filter6157-5"
       style="color-interpolation-filters:sRGB">
      <feGaussianBlur
         id="feGaussianBlur6159-4"
         stdDeviation="0.12012569" />
    </filter>
    <filter
       height="1.2184"
       y="-0.1092"
       width="1.2184"
       x="-0.1092"
       id="filter6484"
       style="color-interpolation-filters:sRGB">
      <feGaussianBlur
         id="feGaussianBlur6486"
         stdDeviation="0.018624225" />
    </filter>
    <filter
       height="2.3152001"
       y="-0.65759999"
       width="2.3152001"
       x="-0.65759999"
       id="filter6157-6"
       style="color-interpolation-filters:sRGB">
      <feGaussianBlur
         id="feGaussianBlur6159-5"
         stdDeviation="0.12012569" />
    </filter>
    <filter
       height="1.2184"
       y="-0.1092"
       width="1.2184"
       x="-0.1092"
       id="filter6998"
       style="color-interpolation-filters:sRGB">
      <feGaussianBlur
         id="feGaussianBlur7000"
         stdDeviation="0.018624225" />
    </filter>
    <filter
       height="2.3152001"
       y="-0.65759999"
       width="2.3152001"
       x="-0.65759999"
       id="filter6157-9"
       style="color-interpolation-filters:sRGB">
      <feGaussianBlur
         id="feGaussianBlur6159-3"
         stdDeviation="0.12012569" />
    </filter>
    <filter
       height="1.2184"
       y="-0.1092"
       width="1.2184"
       x="-0.1092"
       id="filter7176"
       style="color-interpolation-filters:sRGB">
      <feGaussianBlur
         id="feGaussianBlur7178"
         stdDeviation="0.018624225" />
    </filter>
    <filter
       height="2.3152001"
       y="-0.65759999"
       width="2.3152001"
       x="-0.65759999"
       id="filter6157-52"
       style="color-interpolation-filters:sRGB">
      <feGaussianBlur
         id="feGaussianBlur6159-54"
         stdDeviation="0.12012569" />
    </filter>
    <filter
       height="1.2184"
       y="-0.1092"
       width="1.2184"
       x="-0.1092"
       id="filter7326"
       style="color-interpolation-filters:sRGB">
      <feGaussianBlur
         id="feGaussianBlur7328"
         stdDeviation="0.018624225" />
    </filter>
    <filter
       height="2.3152001"
       y="-0.65759999"
       width="2.3152001"
       x="-0.65759999"
       id="filter6157-3"
       style="color-interpolation-filters:sRGB">
      <feGaussianBlur
         id="feGaussianBlur6159-0"
         stdDeviation="0.12012569" />
    </filter>
    <filter
       height="1.2184"
       y="-0.1092"
       width="1.2184"
       x="-0.1092"
       id="filter7432"
       style="color-interpolation-filters:sRGB">
      <feGaussianBlur
         id="feGaussianBlur7434"
         stdDeviation="0.018624225" />
    </filter>
    <filter
       height="2.3152001"
       y="-0.65759999"
       width="2.3152001"
       x="-0.65759999"
       id="filter6157-68"
       style="color-interpolation-filters:sRGB">
      <feGaussianBlur
         id="feGaussianBlur6159-8"
         stdDeviation="0.12012569" />
    </filter>
    <filter
       height="1.0422727"
       y="-0.021136351"
       width="1.0422727"
       x="-0.021136351"
       id="filter11778"
       style="color-interpolation-filters:sRGB">
      <feGaussianBlur
         id="feGaussianBlur11780"
         stdDeviation="0.020080793" />
    </filter>
    <filter
       height="1.1878392"
       y="-0.093919599"
       width="1.6024238"
       x="-0.30121189"
       id="filter11782"
       style="color-interpolation-filters:sRGB">
      <feGaussianBlur
         id="feGaussianBlur11784"
         stdDeviation="0.020080793" />
    </filter>
    <filter
       height="1.1878392"
       y="-0.093919599"
       width="1.6024238"
       x="-0.30121189"
       id="filter11786"
       style="color-interpolation-filters:sRGB">
      <feGaussianBlur
         id="feGaussianBlur11788"
         stdDeviation="0.020080793" />
    </filter>
    <filter
       height="1.1878392"
       y="-0.093919599"
       width="1.6024238"
       x="-0.30121189"
       id="filter11790"
       style="color-interpolation-filters:sRGB">
      <feGaussianBlur
         id="feGaussianBlur11792"
         stdDeviation="0.020080793" />
    </filter>
    <filter
       height="1.1878392"
       y="-0.093919598"
       width="1.6024238"
       x="-0.30121189"
       id="filter11790-7"
       style="color-interpolation-filters:sRGB">
      <feGaussianBlur
         id="feGaussianBlur11792-6"
         stdDeviation="0.020080793" />
    </filter>
    <filter
       height="1.1878392"
       y="-0.093919598"
       width="1.6024238"
       x="-0.30121189"
       id="filter11790-6"
       style="color-interpolation-filters:sRGB">
      <feGaussianBlur
         id="feGaussianBlur11792-5"
         stdDeviation="0.020080793" />
    </filter>
    <filter
       height="1.1878392"
       y="-0.093919598"
       width="1.6024238"
       x="-0.30121189"
       id="filter11790-8"
       style="color-interpolation-filters:sRGB">
      <feGaussianBlur
         id="feGaussianBlur11792-1"
         stdDeviation="0.020080793" />
    </filter>
    <filter
       height="1.1878392"
       y="-0.093919598"
       width="1.6024238"
       x="-0.30121189"
       id="filter11790-7-9"
       style="color-interpolation-filters:sRGB">
      <feGaussianBlur
         id="feGaussianBlur11792-6-3"
         stdDeviation="0.020080793" />
    </filter>
    <filter
       height="1.1878392"
       y="-0.093919598"
       width="1.6024238"
       x="-0.30121189"
       id="filter11786-0"
       style="color-interpolation-filters:sRGB">
      <feGaussianBlur
         id="feGaussianBlur11788-8"
         stdDeviation="0.020080793" />
    </filter>
    <filter
       height="1.1878392"
       y="-0.093919598"
       width="1.6024238"
       x="-0.30121189"
       id="filter11790-6-5"
       style="color-interpolation-filters:sRGB">
      <feGaussianBlur
         id="feGaussianBlur11792-5-0"
         stdDeviation="0.020080793" />
    </filter>
    <filter
       height="1.1878392"
       y="-0.093919598"
       width="1.6024238"
       x="-0.30121189"
       id="filter11782-6"
       style="color-interpolation-filters:sRGB">
      <feGaussianBlur
         id="feGaussianBlur11784-3"
         stdDeviation="0.020080793" />
    </filter>
    <filter
       height="1.1878392"
       y="-0.093919598"
       width="1.6024238"
       x="-0.30121189"
       id="filter11790-9"
       style="color-interpolation-filters:sRGB">
      <feGaussianBlur
         id="feGaussianBlur11792-8"
         stdDeviation="0.020080793" />
    </filter>
    <filter
       height="1.1878392"
       y="-0.093919598"
       width="1.6024238"
       x="-0.30121189"
       id="filter11790-7-8"
       style="color-interpolation-filters:sRGB">
      <feGaussianBlur
         id="feGaussianBlur11792-6-1"
         stdDeviation="0.020080793" />
    </filter>
    <filter
       height="1.1878392"
       y="-0.093919598"
       width="1.6024238"
       x="-0.30121189"
       id="filter11786-3"
       style="color-interpolation-filters:sRGB">
      <feGaussianBlur
         id="feGaussianBlur11788-0"
         stdDeviation="0.020080793" />
    </filter>
    <filter
       height="1.1878392"
       y="-0.093919598"
       width="1.6024238"
       x="-0.30121189"
       id="filter11790-6-4"
       style="color-interpolation-filters:sRGB">
      <feGaussianBlur
         id="feGaussianBlur11792-5-4"
         stdDeviation="0.020080793" />
    </filter>
    <filter
       height="1.1878392"
       y="-0.093919598"
       width="1.6024238"
       x="-0.30121189"
       id="filter11782-7"
       style="color-interpolation-filters:sRGB">
      <feGaussianBlur
         id="feGaussianBlur11784-6"
         stdDeviation="0.020080793" />
    </filter>
    <filter
       height="1.1878392"
       y="-0.093919598"
       width="1.6024238"
       x="-0.30121189"
       id="filter11790-9-2"
       style="color-interpolation-filters:sRGB">
      <feGaussianBlur
         id="feGaussianBlur11792-8-1"
         stdDeviation="0.020080793" />
    </filter>
    <filter
       height="1.1878392"
       y="-0.093919598"
       width="1.6024238"
       x="-0.30121189"
       id="filter11786-3-8"
       style="color-interpolation-filters:sRGB">
      <feGaussianBlur
         id="feGaussianBlur11788-0-5"
         stdDeviation="0.020080793" />
    </filter>
    <filter
       height="1.1878392"
       y="-0.093919598"
       width="1.6024238"
       x="-0.30121189"
       id="filter11782-7-4"
       style="color-interpolation-filters:sRGB">
      <feGaussianBlur
         id="feGaussianBlur11784-6-1"
         stdDeviation="0.020080793" />
    </filter>
    <filter
       height="1.1878392"
       y="-0.093919598"
       width="1.6024238"
       x="-0.30121189"
       id="filter11790-7-8-5"
       style="color-interpolation-filters:sRGB">
      <feGaussianBlur
         id="feGaussianBlur11792-6-1-9"
         stdDeviation="0.020080793" />
    </filter>
    <filter
       height="1.1878392"
       y="-0.093919598"
       width="1.6024238"
       x="-0.30121189"
       id="filter11790-6-4-5"
       style="color-interpolation-filters:sRGB">
      <feGaussianBlur
         id="feGaussianBlur11792-5-4-3"
         stdDeviation="0.020080793" />
    </filter>
    <inkscape:path-effect
       effect="join_type"
       id="path-effect2455-5"
       is_visible="true"
       linecap_type="round"
       line_width="0.26458332"
       linejoin_type="extrp_arc"
       miter_limit="100"
       attempt_force_join="true" />
    <inkscape:path-effect
       effect="join_type"
       id="path-effect2449-3"
       is_visible="true"
       linecap_type="round"
       line_width="0.26458332"
       linejoin_type="extrp_arc"
       miter_limit="100"
       attempt_force_join="true" />
    <inkscape:path-effect
       effect="join_type"
       id="path-effect2461-5"
       is_visible="true"
       linecap_type="round"
       line_width="0.26458332"
       linejoin_type="extrp_arc"
       miter_limit="100"
       attempt_force_join="true" />
    <inkscape:path-effect
       effect="join_type"
       id="path-effect2463-6"
       is_visible="true"
       linecap_type="round"
       line_width="0.45"
       linejoin_type="extrp_arc"
       miter_limit="100"
       attempt_force_join="true" />
    <inkscape:path-effect
       effect="join_type"
       id="path-effect2465-2"
       is_visible="true"
       linecap_type="round"
       line_width="0.26458332"
       linejoin_type="extrp_arc"
       miter_limit="100"
       attempt_force_join="true" />
    <inkscape:path-effect
       effect="join_type"
       id="path-effect2457-9"
       is_visible="true"
       linecap_type="round"
       line_width="0.45"
       linejoin_type="extrp_arc"
       miter_limit="100"
       attempt_force_join="true" />
    <inkscape:path-effect
       effect="join_type"
       id="path-effect2459-1"
       is_visible="true"
       linecap_type="round"
       line_width="0.45"
       linejoin_type="extrp_arc"
       miter_limit="100"
       attempt_force_join="true" />
    <inkscape:path-effect
       effect="join_type"
       id="path-effect2453-2"
       is_visible="true"
       linecap_type="round"
       line_width="0.45"
       linejoin_type="extrp_arc"
       miter_limit="100"
       attempt_force_join="true" />
    <inkscape:path-effect
       effect="join_type"
       id="path-effect2451-7"
       is_visible="true"
       linecap_type="round"
       line_width="0.45"
       linejoin_type="extrp_arc"
       miter_limit="100"
       attempt_force_join="true" />
  </defs>
  <metadata
     id="metadata4943">
    <rdf:RDF>
      <cc:Work
         rdf:about="">
        <dc:format>image/svg+xml</dc:format>
        <dc:type
           rdf:resource="http://purl.org/dc/dcmitype/StillImage" />
        <dc:title />
      </cc:Work>
    </rdf:RDF>
  </metadata>
  <circle
     style="opacity:1;fill:#000000;fill-opacity:1;stroke:none;stroke-width:0.26458332;stroke-opacity:1"
     id="path5606-5-60-6-8-2-2-3-9-2-3"
     cx="-8.2977581"
     cy="-8.8062563"
     r="0" />
  <circle
     style="opacity:1;fill:#000000;fill-opacity:1;stroke:none;stroke-width:0.26458332;stroke-opacity:1"
     id="path5606-5-60-6-8-2-2-3-9-2-7-2"
     cx="-6.3783479"
     cy="-8.345624"
     r="0" />
  <circle
     style="opacity:1;fill:#000000;fill-opacity:1;stroke:none;stroke-width:0.26458332;stroke-opacity:1"
     id="path5606-5-60-6-8-2-2-3-9-2-7-9"
     cx="-6.3783479"
     cy="-8.345624"
     r="0" />
  <circle
     style="opacity:1;fill:#000000;fill-opacity:1;stroke:none;stroke-width:0.26458332;stroke-opacity:1"
     id="path5606-5-60-6-8-2-2-3-9-28-9"
     cx="-7.0293975"
     cy="-9.7756777"
     r="0" />
  <circle
     style="opacity:1;fill:#000000;fill-opacity:1;stroke:none;stroke-width:0.26458332;stroke-opacity:1"
     id="path5606-5-60-6-8-2-2-3-9-28-4"
     cx="-7.0293975"
     cy="-9.7756777"
     r="0" />
  <circle
     style="opacity:1;fill:#000000;fill-opacity:1;stroke:none;stroke-width:0.26458332;stroke-opacity:1"
     id="path5606-5-60-6-8-2-2-3-9-28-7"
     cx="-7.0293975"
     cy="-9.7756777"
     r="0" />
  <circle
     style="opacity:1;fill:#000000;fill-opacity:1;stroke:none;stroke-width:0.26458332;stroke-opacity:1"
     id="path5606-5-60-6-8-2-2-3-9-28-8"
     cx="-7.0293975"
     cy="-9.7756777"
     r="0" />
  <circle
     style="opacity:1;fill:#000000;fill-opacity:1;stroke:none;stroke-width:0.26458332;stroke-opacity:1"
     id="path5606-5-60-6-8-2-2-3-9-28-45"
     cx="-7.0293975"
     cy="-9.7756777"
     r="0" />
  <circle
     style="opacity:1;fill:#000000;fill-opacity:1;stroke:none;stroke-width:0.26458332;stroke-opacity:1"
     id="path5606-5-60-6-8-2-2-3-9-28-0"
     cx="-7.0293975"
     cy="-9.7756777"
     r="0" />
  <circle
     style="opacity:1;fill:#000000;fill-opacity:1;stroke:none;stroke-width:0.26458332;stroke-opacity:1"
     id="path5606-5-60-6-8-2-2-3-9-28-3"
     cx="-7.0293975"
     cy="-9.7756777"
     r="0" />
  <circle
     style="opacity:1;fill:#000000;fill-opacity:1;stroke:none;stroke-width:0.26458332;stroke-opacity:1"
     id="path5606-5-60-6-8-2-2-3-9-0"
     cx="-8.1329279"
     cy="-10.020001"
     r="0" />
  <circle
     style="opacity:1;fill:#000000;fill-opacity:1;stroke:none;stroke-width:0.26458332;stroke-opacity:1"
     id="path5606-5-60-6-8-2-2-3-5-6"
     cx="-7.197485"
     cy="-10.859387"
     r="0" />
  <circle
     style="opacity:1;fill:#000000;fill-opacity:1;stroke:none;stroke-width:0.26458332;stroke-opacity:1"
     id="path5606-5-60-6-8-2-2-3-3"
     cx="-6.8111968"
     cy="-10.609693"
     r="0" />
  <circle
     style="opacity:1;fill:#000000;fill-opacity:1;stroke:none;stroke-width:0.26458332;stroke-opacity:1"
     id="path5606-5-60-6-8-2-2-2"
     cx="-5.8586311"
     cy="-9.9431581"
     r="0" />
  <circle
     style="opacity:1;fill:#000000;fill-opacity:1;stroke:none;stroke-width:0.26458332;stroke-opacity:1"
     id="path5606-5-60-6-8-2-2-3-9-28-06"
     cx="-7.0293975"
     cy="-9.7756777"
     r="0" />
  <circle
     style="opacity:1;fill:#000000;fill-opacity:1;stroke:none;stroke-width:0.26458332;stroke-opacity:1"
     id="path5606-7-7"
     cx="-3.2489953"
     cy="-7.7252321"
     r="0" />
  <circle
     style="opacity:1;fill:#000000;fill-opacity:1;stroke:none;stroke-width:0.26458332;stroke-opacity:1"
     id="path5606-7-6"
     cx="-3.2489953"
     cy="-7.7252321"
     r="0" />
  <circle
     style="opacity:1;fill:#000000;fill-opacity:1;stroke:none;stroke-width:0.26458332;stroke-opacity:1"
     id="path5606-7-5"
     cx="-3.2489953"
     cy="-7.7252321"
     r="0" />
  <circle
     style="opacity:1;fill:#000000;fill-opacity:1;stroke:none;stroke-width:0.26458332;stroke-opacity:1"
     id="path5606-7-69"
     cx="-3.2489953"
     cy="-7.7252321"
     r="0" />
  <circle
     style="opacity:1;fill:#000000;fill-opacity:1;stroke:none;stroke-width:0.26458332;stroke-opacity:1"
     id="path5606-7-3"
     cx="-3.2489953"
     cy="-7.7252321"
     r="0" />
  <circle
     style="opacity:1;fill:#000000;fill-opacity:1;stroke:none;stroke-width:0.26458332;stroke-opacity:1"
     id="path5606-7-74"
     cx="-3.2489953"
     cy="-7.1960573"
     r="0" />
  <circle
     style="opacity:1;fill:#000000;fill-opacity:1;stroke:none;stroke-width:0.26458332;stroke-opacity:1"
     id="path5606-52"
     cx="-2.8289156"
     cy="-7.288434"
     r="0" />
  <circle
     style="opacity:1;fill:#000000;fill-opacity:1;stroke:none;stroke-width:0.26458332;stroke-opacity:1"
     id="path5606-3-5"
     cx="-2.0936339"
     cy="-6.0423098"
     r="0" />
  <circle
     style="opacity:1;fill:#000000;fill-opacity:1;stroke:none;stroke-width:0.26458332;stroke-opacity:1"
     id="path5606-35-4"
     cx="-1.4866868"
     cy="-5.1444216"
     r="0" />
  <path
     style="fill:#000000;fill-rule:nonzero;stroke:none;stroke-width:0.3606028px;stroke-linecap:butt;stroke-linejoin:miter;stroke-opacity:1"
     d="M 6.9762763,2.2637235 C 6.9736384,2.1616762 6.9747223,2.207748 6.966802,2.1236748 6.9588816,2.0396016 6.9445112,1.9231698 6.918173,1.7890958 6.8654967,1.5209478 6.7679309,1.1811729 6.5618184,0.88768403 6.1495934,0.30070618 5.2469163,0.03657368 3.8617984,1.0432832 l 0.00194,-0.00139 C 3.538215,1.2732397 3.4239874,1.6452927 3.3481853,1.9190454 3.3102842,2.0559217 3.2808381,2.175207 3.2601174,2.2292293 3.2393968,2.2832515 3.3365555,2.1754209 3.4236051,2.2043149 2.6604188,1.9509921 2.1063159,2.4772106 1.8424701,3.0415636 1.6070106,3.5451997 1.5167406,4.0665404 1.51491,4.373264 0.84108525,5.1180824 0.09942938,6.1685336 1.1691731,7.4478151 a 3.3564308,3.3564308 0 0 0 0.00153,0.00183 0.31204689,0.31204689 0 0 1 0.00115,0.00132 c 0.2056638,0.2369604 0.034597,0.7618371 0.1239625,1.4041019 0.089366,0.6422648 0.5941953,1.285965 2.1484626,1.557206 a 6.8221997,6.8221997 0 0 0 7e-7,0 0.54504146,0.54504146 0 0 0 9e-7,0 c -0.1311576,-0.02289 -0.087992,-0.06488 -0.06679,0.07952 0.021202,0.144393 0.042719,0.36285 0.1130965,0.599766 0.140754,0.473831 0.5228513,1.027284 1.4104037,1.212328 0.8248733,0.171977 1.4609408,0.06493 1.8068942,-0.421469 C 7.0538386,11.396014 7.0910979,10.65446 6.9806535,9.6062866 A 0.22500003,0.22500003 0 1 0 6.5331309,9.6534414 C 6.6396003,10.66389 6.5602533,11.313582 6.3411805,11.62159 6.1221077,11.929598 5.744729,12.020114 4.992836,11.863352 4.2425274,11.706922 4.0333589,11.338432 3.9219571,10.963411 3.8662563,10.775901 3.8464735,10.588205 3.8227167,10.426412 3.7989599,10.264619 3.7935085,10.016413 3.5216402,9.9689696 l 1.6e-6,3e-7 C 2.0572637,9.7134153 1.8092253,9.2796175 1.7415232,8.793048 1.673821,8.3064785 1.9414855,7.6511838 1.5117029,7.1559997 l 0.00268,0.00315 C 0.5464221,6.0015837 1.2259286,5.351473 1.9079723,4.6101208 A 25.408434,25.408434 0 0 0 2.0014805,4.5079237 0.09547019,0.09547019 0 0 1 1.966771,4.441134 C 1.960391,4.355116 2.02932,3.7044254 2.2501193,3.2321474 2.4709183,2.7598693 2.7356343,2.4501003 3.2818433,2.6314022 3.4718254,2.6944622 3.6387614,2.4986068 3.6802716,2.3903827 3.7217816,2.2821585 3.7470196,2.1649757 3.7818664,2.0391316 3.8515584,1.7874434 3.9550769,1.5290457 4.1244246,1.4086896 a 0.42976631,0.42976631 0 0 1 8.789e-4,-6.23e-4 7.8670663,7.8670663 0 0 1 0.00106,-7.71e-4 C 5.4211734,0.46622263 5.8971313,0.72421428 6.1935596,1.1463062 c 0.1482141,0.211046 0.2374796,0.4975424 0.2830528,0.729532 0.022787,0.1159948 0.035396,0.2180983 0.042173,0.2900433 0.00678,0.071945 0.00544,0.024516 0.00764,0.1094704 a 0.22500003,0.22500003 0 1 0 0.4498498,-0.011628 z"
     id="path2427"
     inkscape:connector-curvature="0"
     sodipodi:nodetypes="ccsccssc"
     inkscape:original-d="m 6.7513514,2.2695377 c 0,0 -0.077343,-2.99203079 -2.7572701,-1.0442483 C 3.4992106,1.576996 3.5585898,2.4861907 3.352724,2.4178585 2.0433291,1.9832339 1.7150861,4.0898335 1.7423878,4.4577831 1.0571613,5.2025949 0.30648377,6.0653961 1.3417787,7.3034811 1.9772251,8.0356256 0.46431535,9.6638239 3.4829607,10.19062 c 0.2814214,0.04911 -0.1739084,1.551522 1.463953,1.892996 1.5767659,0.328739 2.0268923,-0.39513 1.8099785,-2.453752"
     inkscape:path-effect="#path-effect2451-7" />
  <path
     style="fill:#000000;fill-rule:nonzero;stroke:none;stroke-width:0.3606028px;stroke-linecap:butt;stroke-linejoin:miter;stroke-opacity:1"
     d="m 3.2132282,2.4152961 c 0.00384,0.055336 0.00257,0.033954 0.00973,0.079975 0.00716,0.046021 0.019305,0.1098031 0.039767,0.1864959 0.040926,0.1533857 0.1150804,0.3588023 0.2504796,0.574894 0.2707984,0.4321835 0.7987053,0.899562 1.7259102,1.0454137 A 0.225,0.225 0 1 0 5.3090388,3.8575411 C 4.4975357,3.7298896 4.1072486,3.3572184 3.89453,3.0177281 3.7881707,2.8479829 3.7292361,2.6846565 3.6975122,2.5657584 3.6816503,2.5063094 3.6725801,2.4580645 3.6676062,2.4260938 c -0.00497,-0.031971 -0.0032,-0.0094 -0.00546,-0.041972 a 0.225,0.225 0 1 0 -0.4489188,0.031175 z"
     id="path2429"
     inkscape:connector-curvature="0"
     inkscape:original-d="m 3.4376876,2.3997087 c 0,0 0.09768,1.4065961 1.836388,1.6800993"
     inkscape:path-effect="#path-effect2453-2" />
  <path
     style="fill:#000000;fill-rule:nonzero;stroke:none;stroke-width:0.3606028px;stroke-linecap:butt;stroke-linejoin:miter;stroke-opacity:1"
     d="m 3.7401812,10.094467 c 0.00427,-0.05605 0.00169,-0.02353 0.00873,-0.07451 0.00704,-0.050982 0.019115,-0.125388 0.038854,-0.2149948 C 3.8272393,9.6257456 3.8977951,9.3858644 4.0168704,9.1510524 4.2550209,8.6814283 4.6499323,8.2403578 5.4523713,8.2315397 A 0.225,0.225 0 1 0 5.4474265,7.7815669 C 4.4720867,7.7922849 3.8999644,8.3866247 3.6155258,8.947527 3.4733066,9.2279782 3.393679,9.5021391 3.3482975,9.7081518 c -0.022691,0.1030064 -0.03671,0.1890094 -0.045166,0.2502841 -0.00846,0.061275 -0.00615,0.029694 -0.01165,0.1018451 a 0.22500016,0.22500016 0 1 0 0.4486996,0.03419 z"
     id="path2431"
     inkscape:connector-curvature="0"
     inkscape:original-d="m 3.5158314,10.077374 c 0,0 0.1562887,-2.0512846 1.9340675,-2.0708207"
     inkscape:path-effect="#path-effect2459-1" />
  <path
     style="fill:#000000;fill-rule:nonzero;stroke:none;stroke-width:0.3606028px;stroke-linecap:butt;stroke-linejoin:miter;stroke-opacity:1"
     d="M 3.9434988,8.7325143 C 3.8576443,8.7016949 3.9060898,8.7192287 3.8385478,8.6885026 3.7710058,8.6577766 3.6780201,8.6112123 3.581356,8.5507973 3.3880276,8.4299671 3.190199,8.251439 3.1212073,8.0651599 A 0.22500003,0.22500003 0 1 0 2.6992199,8.2214503 c 0.1263676,0.3411949 0.4071719,0.5631559 0.6436366,0.7109462 0.1182324,0.073895 0.2279333,0.1286741 0.3093538,0.1657137 0.08142,0.037039 0.034628,0.020385 0.1392497,0.057942 A 0.22500008,0.22500008 0 1 0 3.9434988,8.7325143 Z"
     id="path2433"
     inkscape:connector-curvature="0"
     inkscape:path-effect="#path-effect2457-9"
     inkscape:original-d="m 3.8674794,8.9442832 c 0,0 -0.7619065,-0.2735041 -0.9572658,-0.8009781" />
  <path
     style="fill:#000000;fill-rule:nonzero;stroke:none;stroke-width:0.3193551px;stroke-linecap:butt;stroke-linejoin:miter;stroke-opacity:1"
     d="m 6.5111903,3.32076 -0.00369,0.9741026 a 0.22500001,0.22500001 0 1 0 0.4499968,0.0017 L 6.9611871,3.32246 A 0.22500001,0.22500001 0 1 0 6.5111903,3.32076 Z"
     id="path2437"
     inkscape:connector-curvature="0"
     inkscape:original-d="m 6.7361887,3.3216123 -0.00369,0.9741026"
     inkscape:path-effect="#path-effect2463-6"
     sodipodi:nodetypes="cc" />
  <path
     id="path2467"
     style="opacity:1;fill:#000000;fill-opacity:1;fill-rule:nonzero;stroke:none;stroke-width:0.33355761;stroke-miterlimit:4;stroke-dasharray:none;stroke-opacity:1"
     d="m 4.776027,2.1405377 c 0.00386,0.060431 0.00478,0.048246 0.018436,0.091794 C 4.808119,2.2758807 4.8318,2.3305257 4.87116,2.3894542 4.94988,2.5073114 5.0906908,2.6392665 5.3230037,2.747679 5.7876296,2.9645042 6.6142702,3.1044131 8.189331,2.9360109 A 0.225,0.225 0 1 0 8.1414901,2.4885613 C 6.6103167,2.6522712 5.8545372,2.4991399 5.5133015,2.3398967 5.3426836,2.2602752 5.2747037,2.1834391 5.2453649,2.1395137 5.2160261,2.0955884 5.2283874,2.1631721 5.2251132,2.1118737 A 0.22500002,0.22500002 0 1 0 4.776027,2.1405377 Z m 4.2098944,1.185093 c -0.3414055,0 -0.6133439,-0.2719384 -0.6133439,-0.6133439 0,-0.3414055 0.2719384,-0.6133438 0.6133439,-0.6133438 0.3414054,0 0.6133438,0.2719384 0.6133438,0.6133438 0,0.3414055 -0.2719383,0.6133439 -0.6133438,0.6133439 z m 0,-1.6766877 c -0.5846035,0 -1.0633438,0.4787402 -1.0633439,1.0633438 0,0.5846036 0.4787403,1.0633439 1.0633439,1.0633439 0.5846036,-10e-8 1.0633436,-0.4787404 1.0633436,-1.0633439 0,-0.5846035 -0.4787401,-1.0633437 -1.0633436,-1.0633438 z"
     inkscape:path-effect="#path-effect2659"
     inkscape:original-d="M 9.8242652,2.7122868 A 0.83834388,0.83834388 0 0 1 8.9859214,3.5506307 0.83834388,0.83834388 0 0 1 8.1475775,2.7122868 0.83834388,0.83834388 0 0 1 8.9859214,1.873943 0.83834388,0.83834388 0 0 1 9.8242652,2.7122868 Z M 5.0005701,2.1262057 c 0,0 0.058606,0.9181926 3.1648402,0.5860805"
     inkscape:connector-curvature="0" />
  <path
     id="path2467-3"
     style="opacity:1;fill:#000000;fill-opacity:1;fill-rule:nonzero;stroke:none;stroke-width:0.33355761;stroke-miterlimit:4;stroke-dasharray:none;stroke-opacity:1"
     d="m 2.5504068,5.0871557 c 0.039029,0.02619 0.015357,0.010162 0.048159,0.035645 0.032802,0.025483 0.079358,0.063831 0.1306778,0.1124354 0.1026395,0.097209 0.222923,0.2363832 0.2956287,0.38769 C 3.1702836,5.9255398 3.2174945,6.2549263 2.5118988,6.725322 A 0.22500002,0.22500002 0 1 0 2.7615134,7.099745 C 3.5797312,6.5542681 3.6464796,5.8775495 3.4304753,5.4280262 3.3224731,5.2032646 3.1668104,5.0298626 3.0386805,4.9085121 2.9746155,4.8478368 2.9170816,4.8004096 2.8746391,4.767437 2.8321965,4.7344645 2.8549227,4.7495719 2.8011554,4.7134911 A 0.22500005,0.22500005 0 1 0 2.5504068,5.0871557 Z m 0.7509535,1.1440668 c 0.054419,0.014568 0.033229,0.00869 0.079956,0.017115 0.046727,0.00843 0.1123551,0.018047 0.1933647,0.024133 0.1620192,0.012172 0.3858687,0.010372 0.6416841,-0.045115 0.4876513,-0.1057728 1.0901,-0.4183661 1.556156,-1.1607236 0.076703,-3.25e-5 0.1854192,-5.36e-5 0.3186012,-1.35e-5 0.2750179,8.27e-5 0.6543657,4.261e-4 1.0715766,0.00147 0.8344219,0.00209 1.8211284,0.007 2.4246915,0.018132 a 0.225,0.225 0 1 0 0.0083,-0.4499234 C 8.9855485,4.625039 7.999115,4.6201772 7.1638235,4.6180894 6.7461777,4.6170494 6.3665255,4.6166994 6.0912574,4.6166194 5.9536234,4.616578 5.8420861,4.6166019 5.764947,4.6166361 5.687808,4.6166703 5.7305,4.6166258 5.6450263,4.6167149 a 1036577.1,1036577.1 0 0 0 -0.1328184,1.386e-4 3.315087,3.315087 0 0 1 -0.06194,0.1125996 C 5.0345816,5.4514794 4.529718,5.6989252 4.1209768,5.7875822 3.9166063,5.8319106 3.7358916,5.833314 3.6083932,5.8237353 3.544644,5.818946 3.4942752,5.8114508 3.4611944,5.805484 3.4281134,5.799514 3.4505414,5.8053128 3.4177244,5.796524 A 0.22500188,0.22500188 0 1 0 3.3013603,6.2312225 Z M 10.568339,5.4941311 c -0.341405,-2e-7 -0.6133434,-0.2719385 -0.6133434,-0.6133439 0,-0.3414054 0.2719384,-0.6133437 0.6133434,-0.6133439 0.341406,0 0.613344,0.2719383 0.613344,0.6133439 0,0.3414056 -0.271938,0.6133439 -0.613344,0.6133439 z m 0,-1.6766878 c -0.5846035,3e-7 -1.0633434,0.4787406 -1.0633434,1.0633439 0,0.5846033 0.4787399,1.0633436 1.0633434,1.0633439 0.584604,1e-7 1.063344,-0.4787403 1.063344,-1.0633439 0,-0.5846036 -0.47874,-1.063344 -1.063344,-1.0633439 z"
     inkscape:path-effect="#path-effect2645"
     inkscape:original-d="M 11.406683,4.8807872 A 0.83834388,0.83834388 0 0 1 10.568339,5.7191311 0.83834388,0.83834388 0 0 1 9.7299956,4.8807872 0.83834388,0.83834388 0 0 1 10.568339,4.0424433 0.83834388,0.83834388 0 0 1 11.406683,4.8807872 Z M 3.3595426,6.0138753 c 0,0 1.3957692,0.3736372 2.2857184,-1.1721609 0,0 2.7325736,-0.00285 3.94628,0.019544 m -6.9157599,0.039065 c 0,0 1.4847385,0.9963375 -0.039075,2.0122101"
     inkscape:connector-curvature="0" />
  <path
     id="path2467-3-6"
     style="opacity:1;fill:#000000;fill-opacity:1;fill-rule:nonzero;stroke:none;stroke-width:0.33355761;stroke-miterlimit:4;stroke-dasharray:none;stroke-opacity:1"
     d="m 6.4947447,5.3930771 0.00941,3.1305471 a 0.225,0.225 0 1 0 0.449998,-0.00135 l -0.00941,-3.1305471 a 0.225,0.225 0 1 0 -0.449998,0.00135 z m 0.2439802,1.8226027 0.9377298,0.0023 a 0.225,0.225 0 1 0 0.0011,-0.4499986 l -0.9377298,-0.0023 a 0.225,0.225 0 1 0 -0.0011,0.4499986 z m 1.8760125,0.3688076 c -0.3414056,0 -0.6133439,-0.2719383 -0.6133439,-0.6133439 0,-0.3414054 0.2719385,-0.6133439 0.6133439,-0.6133439 0.3414054,0 0.6133438,0.2719384 0.6133438,0.6133439 0,0.3414056 -0.2719382,0.6133439 -0.6133438,0.6133439 z m 0,-1.6766878 c -0.5846036,0 -1.0633439,0.4787403 -1.0633439,1.0633439 0,0.5846036 0.4787403,1.0633439 1.0633439,1.0633439 0.5846036,0 1.0633438,-0.4787403 1.0633438,-1.0633439 0,-0.5846035 -0.4787402,-1.0633439 -1.0633438,-1.0633439 z"
     inkscape:path-effect="#path-effect2649"
     inkscape:original-d="m 9.4530812,6.9711435 c 0,0.4630046 -0.3753392,0.8383439 -0.8383438,0.8383439 -0.4630046,0 -0.8383439,-0.3753393 -0.8383439,-0.8383439 0,-0.4630045 0.3753394,-0.8383439 0.8383439,-0.8383439 0.4630045,0 0.8383438,0.3753394 0.8383438,0.8383439 z m -2.7138044,0.019537 0.9377298,0.0023 m -0.9572629,-1.6005797 0.00941,3.1305471"
     inkscape:connector-curvature="0"
     sodipodi:nodetypes="ssssscccc" />
  <path
     id="path2467-3-7"
     style="opacity:1;fill:#000000;fill-opacity:1;fill-rule:nonzero;stroke:none;stroke-width:0.33355761;stroke-miterlimit:4;stroke-dasharray:none;stroke-opacity:1"
     d="M 5.5801473,9.7729099 C 5.7475248,9.9641737 5.5071743,9.7546731 5.8880065,9.5646283 6.2688387,9.3745834 7.16208,9.1926927 8.9868265,9.3443352 A 0.22500004,0.22500004 0 1 0 9.0240945,8.895881 C 7.1593082,8.7409112 6.2058614,8.9030914 5.6870744,9.1619792 5.1682874,9.4208669 4.9753866,9.7651606 5.2415069,10.069259 A 0.22500006,0.22500006 0 1 0 5.5801473,9.7729099 Z m 4.3259,-0.034439 c -0.3414054,0 -0.6133438,-0.2719382 -0.6133439,-0.6133436 0,-0.3414055 0.2719384,-0.6133439 0.6133439,-0.6133439 0.3414057,10e-8 0.6133437,0.2719384 0.6133437,0.6133438 0,0.3414054 -0.271938,0.6133436 -0.6133437,0.6133437 z m 0,-1.6766875 c -0.5846036,0 -1.0633439,0.4787403 -1.0633439,1.063344 2e-7,0.5846034 0.4787405,1.0633436 1.0633439,1.0633426 0.5846037,0 1.0633437,-0.4787393 1.0633437,-1.0633427 0,-0.5846035 -0.47874,-1.0633438 -1.0633437,-1.0633439 z"
     inkscape:path-effect="#path-effect2655"
     inkscape:original-d="M 10.744391,9.1251269 A 0.83834388,0.83834388 0 0 1 9.9060473,9.9634705 0.83834388,0.83834388 0 0 1 9.0677034,9.1251269 0.83834388,0.83834388 0 0 1 9.9060473,8.286783 0.83834388,0.83834388 0 0 1 10.744391,9.1251269 Z M 5.4108271,9.9210843 C 5.3120843,9.80825 5.3159277,8.8134958 9.0054605,9.1201081"
     inkscape:connector-curvature="0" />
</svg>
