<?xml version="1.0" encoding="UTF-8" standalone="no"?>
<!-- Created with Inkscape (http://www.inkscape.org/) -->

<svg
   xmlns:dc="http://purl.org/dc/elements/1.1/"
   xmlns:cc="http://creativecommons.org/ns#"
   xmlns:rdf="http://www.w3.org/1999/02/22-rdf-syntax-ns#"
   xmlns:svg="http://www.w3.org/2000/svg"
   xmlns="http://www.w3.org/2000/svg"
   xmlns:sodipodi="http://sodipodi.sourceforge.net/DTD/sodipodi-0.dtd"
   xmlns:inkscape="http://www.inkscape.org/namespaces/inkscape"
   width="447mm"
   height="210mm"
   viewBox="0 0 447 210"
   version="1.1"
   id="svg2135"
   inkscape:version="0.92.3 (2405546, 2018-03-11)"
   sodipodi:docname="background.svg">
  <defs
     id="defs2129">
    <filter
       inkscape:collect="always"
       style="color-interpolation-filters:sRGB"
       id="filter13144"
       x="-0.33374385"
       width="1.6674877"
       y="-0.33586286"
       height="1.6717257">
      <feGaussianBlur
         inkscape:collect="always"
         stdDeviation="23.563551"
         id="feGaussianBlur13146" />
    </filter>
    <filter
       inkscape:collect="always"
       style="color-interpolation-filters:sRGB"
       id="filter14844"
       x="-0.21204356"
       width="1.4240871"
       y="-0.099895213"
       height="1.1997904">
      <feGaussianBlur
         inkscape:collect="always"
         stdDeviation="2.6767672"
         id="feGaussianBlur14846" />
    </filter>
    <filter
       inkscape:collect="always"
       style="color-interpolation-filters:sRGB"
       id="filter14848"
       x="-0.269725"
       width="1.53945"
       y="-0.099943163"
       height="1.1998863">
      <feGaussianBlur
         inkscape:collect="always"
         stdDeviation="2.6932799"
         id="feGaussianBlur14850" />
    </filter>
    <filter
       inkscape:collect="always"
       style="color-interpolation-filters:sRGB"
       id="filter14876"
       x="-0.052870903"
       width="1.1057418"
       y="-0.052454304"
       height="1.1049086">
      <feGaussianBlur
         inkscape:collect="always"
         stdDeviation="3.0353247"
         id="feGaussianBlur14878" />
    </filter>
    <filter
       inkscape:collect="always"
       style="color-interpolation-filters:sRGB"
       id="filter14880"
       x="-0.057650932"
       width="1.1153019"
       y="-0.058303788"
       height="1.1166076">
      <feGaussianBlur
         inkscape:collect="always"
         stdDeviation="3.0353247"
         id="feGaussianBlur14882" />
    </filter>
    <filter
       inkscape:collect="always"
       style="color-interpolation-filters:sRGB"
       id="filter17446"
       x="-0.21155596"
       width="1.4231119"
       y="-0.19679352"
       height="1.393587">
      <feGaussianBlur
         inkscape:collect="always"
         stdDeviation="2.4633753"
         id="feGaussianBlur17448" />
    </filter>
    <filter
       inkscape:collect="always"
       style="color-interpolation-filters:sRGB"
       id="filter17450"
       x="-0.1560753"
       width="1.3121506"
       y="-0.0657154"
       height="1.1314308">
      <feGaussianBlur
         inkscape:collect="always"
         stdDeviation="2.4633753"
         id="feGaussianBlur17452" />
    </filter>
    <filter
       inkscape:collect="always"
       style="color-interpolation-filters:sRGB"
       id="filter17454"
       x="-0.020695742"
       width="1.0413915"
       y="-0.13039938"
       height="1.2607988">
      <feGaussianBlur
         inkscape:collect="always"
         stdDeviation="2.4633753"
         id="feGaussianBlur17456" />
    </filter>
    <filter
       inkscape:collect="always"
       style="color-interpolation-filters:sRGB"
       id="filter17458"
       x="-0.1023584"
       width="1.2047168"
       y="-0.1453815"
       height="1.290763">
      <feGaussianBlur
         inkscape:collect="always"
         stdDeviation="2.4633753"
         id="feGaussianBlur17460" />
    </filter>
    <filter
       inkscape:collect="always"
       style="color-interpolation-filters:sRGB"
       id="filter17462"
       x="-0.11782331"
       width="1.2356466"
       y="-0.18341744"
       height="1.3668349">
      <feGaussianBlur
         inkscape:collect="always"
         stdDeviation="2.4633753"
         id="feGaussianBlur17464" />
    </filter>
    <filter
       inkscape:collect="always"
       style="color-interpolation-filters:sRGB"
       id="filter17466"
       x="-0.6238879"
       width="2.2477758"
       y="-1.4895393"
       height="3.9790786">
      <feGaussianBlur
         inkscape:collect="always"
         stdDeviation="2.4633753"
         id="feGaussianBlur17468" />
    </filter>
    <filter
       inkscape:collect="always"
       style="color-interpolation-filters:sRGB"
       id="filter17470"
       x="-0.20436707"
       width="1.4087341"
       y="-0.16044617"
       height="1.3208923">
      <feGaussianBlur
         inkscape:collect="always"
         stdDeviation="2.4633753"
         id="feGaussianBlur17472" />
    </filter>
    <filter
       inkscape:collect="always"
       style="color-interpolation-filters:sRGB"
       id="filter17474"
       x="-0.30118777"
       width="1.6023755"
       y="-0.32686142"
       height="1.6537228">
      <feGaussianBlur
         inkscape:collect="always"
         stdDeviation="2.4633753"
         id="feGaussianBlur17476" />
    </filter>
    <filter
       inkscape:collect="always"
       style="color-interpolation-filters:sRGB"
       id="filter17478"
       x="-0.36260692"
       width="1.7252138"
       y="-0.22932914"
       height="1.4586583">
      <feGaussianBlur
         inkscape:collect="always"
         stdDeviation="2.4633753"
         id="feGaussianBlur17480" />
    </filter>
    <filter
       inkscape:collect="always"
       style="color-interpolation-filters:sRGB"
       id="filter17482"
       x="-0.37723395"
       width="1.7544679"
       y="-0.22366325"
       height="1.4473265">
      <feGaussianBlur
         inkscape:collect="always"
         stdDeviation="2.4633753"
         id="feGaussianBlur17484" />
    </filter>
    <filter
       inkscape:collect="always"
       style="color-interpolation-filters:sRGB"
       id="filter17486"
       x="-0.14982273"
       width="1.2996455"
       y="-0.079221675"
       height="1.1584433">
      <feGaussianBlur
         inkscape:collect="always"
         stdDeviation="2.4633753"
         id="feGaussianBlur17488" />
    </filter>
  </defs>
  <sodipodi:namedview
     id="base"
     pagecolor="#ffffff"
     bordercolor="#666666"
     borderopacity="1.0"
     inkscape:pageopacity="0.0"
     inkscape:pageshadow="2"
     inkscape:zoom="0.49497475"
     inkscape:cx="487.22114"
     inkscape:cy="750.82637"
     inkscape:document-units="mm"
     inkscape:current-layer="layer1"
     showgrid="false"
     inkscape:window-width="1920"
     inkscape:window-height="1057"
     inkscape:window-x="0"
     inkscape:window-y="0"
     inkscape:window-maximized="1" />
  <metadata
     id="metadata2132">
    <rdf:RDF>
      <cc:Work
         rdf:about="">
        <dc:format>image/svg+xml</dc:format>
        <dc:type
           rdf:resource="http://purl.org/dc/dcmitype/StillImage" />
        <dc:title></dc:title>
      </cc:Work>
    </rdf:RDF>
  </metadata>
  <g
     inkscape:label="Layer 1"
     inkscape:groupmode="layer"
     id="layer1"
     transform="translate(0,-87)">
    <path
       style="opacity:0.9;fill:#575757;fill-opacity:1;stroke:none;stroke-width:0.30177745px;stroke-linecap:butt;stroke-linejoin:miter;stroke-opacity:1;filter:url(#filter17486)"
       d="m 156.08967,179.24914 c 0,0 9.41716,9.93209 4.01388,18.96125 -5.40332,9.02916 1.23503,9.48061 -3.8595,17.1554 -5.09455,7.67478 0.61751,20.4661 0.61751,20.4661 0,0 -22.69387,-1.65535 -27.63405,-5.56799 -4.94015,-3.91263 -7.10149,-5.267 -3.0876,-16.85443 4.01389,-11.58742 -6.63834,-48.75746 -3.08759,-51.16523 3.55072,-2.40778 19.76708,-0.76628 22.07636,6.3204 4.16824,3.46118 10.96099,10.6845 10.96099,10.6845 z"
       id="path11303"
       inkscape:connector-curvature="0"
       sodipodi:nodetypes="cccccsccc"
       transform="matrix(1.046425,0,0,1.046425,-57.497669,-13.320029)" />
    <path
       style="opacity:0.9;fill:#838383;fill-opacity:1;stroke:none;stroke-width:0.30177745px;stroke-linecap:butt;stroke-linejoin:miter;stroke-opacity:1;filter:url(#filter14880)"
       d="m 145.8964,174.14426 c 0,0 -17.59931,26.78651 -20.68694,27.38846 -3.0876,0.60194 -16.05551,20.76707 -17.59933,26.18456 -1.54378,5.4175 -8.645264,14.44665 -10.80659,21.97096 -2.161337,7.5243 -3.705118,8.42722 -6.175228,17.45637 -2.470075,9.02917 -2.778813,14.44666 -7.410225,20.76707 -4.631412,6.32042 -11.732888,10.53403 -11.732888,10.53403 l -51.948929,0.37623 c 0,0 22.385535,-19.94568 24.85561,-24.76123 2.470075,-4.81555 3.870456,-8.79495 10.045672,-13.00857 6.175193,-4.2136 14.268788,-5.04349 23.531613,-10.76196 9.262813,-5.71847 15.746778,-12.9418 19.143113,-19.26221 3.396372,-6.32041 10.822122,-10.39422 12.365932,-20.02533 1.54382,-9.6311 1.52829,-11.8777 7.08599,-16.69325 5.55766,-4.81555 11.11533,-6.32042 13.89419,-9.93208 2.77885,-3.61167 6.79274,-9.63111 9.26281,-10.23305 2.47008,-0.60195 6.1752,0 6.1752,0 z"
       id="path11289"
       inkscape:connector-curvature="0"
       sodipodi:nodetypes="cccccsccssscsccsc"
       transform="matrix(1.046425,0,0,1.046425,-57.497669,-13.320029)" />
    <path
       style="opacity:0.9;fill:#c4c4c4;fill-opacity:1;stroke:none;stroke-width:0.30177745px;stroke-linecap:butt;stroke-linejoin:miter;stroke-opacity:0.66803278;filter:url(#filter14876)"
       d="m 145.8964,174.14426 c 0,0 -4.01389,-10.23306 -10.961,-9.33014 -6.94712,0.90292 -4.94017,1.65535 -4.94017,1.65535 0,0 -6.79271,-7.5243 -8.02775,-6.32042 -1.23504,1.20389 -14.66612,8.27674 -17.59933,20.01465 -2.93323,11.73791 -21.613221,15.65055 -29.33223,39.42734 -7.718998,23.77678 -12.659182,6.32041 -28.405926,41.8351 -15.746778,35.51471 -38.5178731,37.47103 -38.5178731,37.47103 l 11.4241491,-0.0752 c 0,0 16.287096,-10.15781 18.139649,-13.16753 1.852553,-3.00972 12.813568,-23.32533 18.37124,-24.22824 5.557706,-0.90292 32.882986,-13.39327 34.581153,-15.80104 1.698179,-2.40778 19.180808,-27.02051 21.145758,-35.32046 1.96492,-8.29996 1.52828,-13.40762 6.11313,-15.74865 4.58486,-2.341 14.84619,-8.08712 17.24777,-12.55633 2.40161,-4.46921 10.76143,-7.85542 10.76143,-7.85542 z"
       id="path11287"
       inkscape:connector-curvature="0"
       sodipodi:nodetypes="cscccssccscccscc"
       transform="matrix(1.046425,0,0,1.046425,-57.497669,-13.320029)" />
    <path
       style="opacity:0.9;fill:#676767;fill-opacity:1;stroke:none;stroke-width:0.30177745px;stroke-linecap:butt;stroke-linejoin:miter;stroke-opacity:1;filter:url(#filter17482)"
       d="m 158.48899,154.63085 c 0,0 -2.17941,0.92205 -0.54033,4.89079 0.52707,1.2762 -4.80247,12.84385 -4.47702,15.19909 -0.0772,1.50485 -2.85603,-4.96604 -4.39984,-4.74031 -1.54379,0.22572 -6.2524,-8.50246 -6.2524,-8.50246 0,0 1.00348,-10.08256 2.31572,-11.66266 1.31222,-1.58011 8.10495,-1.88108 9.95751,0 1.85257,1.88107 3.47355,2.93447 3.39636,4.81555 z"
       id="path11281"
       inkscape:connector-curvature="0"
       sodipodi:nodetypes="cscsccsc"
       transform="matrix(1.046425,0,0,1.046425,-57.497669,-13.320029)" />
    <path
       style="opacity:0.9;fill:#575757;fill-opacity:1;stroke:none;stroke-width:0.30177745px;stroke-linecap:butt;stroke-linejoin:miter;stroke-opacity:1;filter:url(#filter17478)"
       d="m 136.76984,148.36428 c 0,0 1.37346,13.11416 -4.82383,12.95657 -7.35275,-0.18699 13.95039,12.82341 13.95039,12.82341 0,0 -0.87784,-9.05056 0.66597,-10.10396 1.5438,-1.05341 -9.79253,-15.67602 -9.79253,-15.67602 z"
       id="path11305"
       inkscape:connector-curvature="0"
       sodipodi:nodetypes="csccc"
       transform="matrix(1.046425,0,0,1.046425,-57.497669,-13.320029)" />
    <path
       style="opacity:0.9;fill:#a2a2a2;fill-opacity:1;stroke:none;stroke-width:0.30177745px;stroke-linecap:butt;stroke-linejoin:miter;stroke-opacity:1;filter:url(#filter17474)"
       d="m 139.3943,153.78177 c 0,0 -1.85255,3.91263 -4.6314,5.11652 -2.77882,1.20389 -3.08759,4.21361 -5.55767,3.91265 -2.47007,-0.30099 -3.70512,-1.80584 -5.86644,-0.60196 -2.16134,1.20389 -5.24894,1.80583 -2.47008,-1.80582 2.77882,-3.61168 4.01388,-3.61168 4.32263,-5.4175 0.30877,-1.80583 -0.92626,-0.30097 3.39637,-2.40778 4.32263,-2.10681 6.48397,-4.81555 6.48397,-4.81555 l 2.16132,-2.70875 z"
       id="path11299"
       inkscape:connector-curvature="0"
       transform="matrix(1.046425,0,0,1.046425,-57.497669,-13.320029)" />
    <path
       style="opacity:0.9;fill:#545454;fill-opacity:1;stroke:none;stroke-width:0.30177745px;stroke-linecap:butt;stroke-linejoin:miter;stroke-opacity:1;filter:url(#filter17470)"
       d="m 136.76984,148.36428 c 0,0 2.70165,4.43934 2.62446,5.41749 -2.39287,6.84711 7.26008,21.23267 8.64528,18.81076 1.96497,-3.43557 3.90669,-14.81842 4.01389,-14.67239 0,0 -6.48396,-6.24517 -5.63487,-6.92236 0.84909,-0.67719 8.41371,-3.23545 8.25934,6.84711 0.42847,0.54016 1.30142,0.67123 2.45078,1.01579 0,0 -0.29825,-3.13339 0.86838,-4.0255 1.11923,-0.85587 4.55717,-8.9387 -1.54379,-14.82288 -6.06889,-5.85325 -17.05901,-5.19177 -22.30793,1.42962 -5.24893,6.62138 -2.23852,11.3617 -2.23852,11.3617 3.01258,-3.72119 3.2807,-3.51153 4.86298,-4.43934 z"
       id="path11279"
       inkscape:connector-curvature="0"
       sodipodi:nodetypes="ccsccccssccc"
       transform="matrix(1.046425,0,0,1.046425,-57.497669,-13.320029)" />
    <path
       style="opacity:0.9;fill:#8f8f8f;fill-opacity:1;stroke:none;stroke-width:0.30177745px;stroke-linecap:butt;stroke-linejoin:miter;stroke-opacity:1;filter:url(#filter17466)"
       d="m 155.33598,139.03414 c 0,0 -0.58086,-1.35437 1.11732,-2.1068 1.69819,-0.75244 -1.25434,-1.86228 -1.25434,-1.86228 0,0 -6.25522,0.12731 -7.56518,0.97864 -1.30995,0.85128 7.7022,2.99044 7.7022,2.99044 z"
       id="path11283"
       inkscape:connector-curvature="0"
       sodipodi:nodetypes="ccccc"
       transform="matrix(1.046425,0,0,1.046425,-57.497669,-13.320029)" />
    <path
       style="opacity:0.9;fill:#606060;fill-opacity:1;stroke:none;stroke-width:0.30177745px;stroke-linecap:butt;stroke-linejoin:miter;stroke-opacity:1;filter:url(#filter17462)"
       d="m 131.11983,147.15725 c 0,0 -8.9654,-0.59891 -15.28362,3.00973 -3.94671,2.25416 15.96074,-39.74963 44.92462,-30.92488 5.8663,1.78735 4.65012,4.37858 4.65012,4.37858 -5.29338,2.66024 -8.56129,12.51985 -8.5915,12.49144 -2.17619,-2.04601 -7.62513,0.0452 -8.10224,0.0242 -8.31583,-0.36611 -13.86402,2.23099 -17.59738,11.021 z"
       id="path11285"
       inkscape:connector-curvature="0"
       sodipodi:nodetypes="csscsscc"
       transform="matrix(1.046425,0,0,1.046425,-57.497669,-13.320029)" />
    <path
       style="opacity:0.9;fill:#5d5d5d;fill-opacity:1;stroke:none;stroke-width:0.32229546px;stroke-linecap:butt;stroke-linejoin:miter;stroke-opacity:1;filter:url(#filter14848)"
       d="m 147.67247,235.07503 c 0,0 -3.1133,11.2976 1.84828,21.26551 2.28106,4.58269 1.4492,7.39767 -1.91309,11.01543 -4.07099,4.38031 -5.4255,30.27357 -3.59137,32.06143 l -13.72698,-0.0902 c 0,0 3.4879,-16.52462 1.4957,-19.92973 -1.99219,-3.40511 -4.94508,-23.89993 -4.94508,-23.89993 0,0 5.89112,-23.82768 20.83254,-20.42257 z"
       id="path11311"
       inkscape:connector-curvature="0"
       sodipodi:nodetypes="csscccccc"
       transform="matrix(1.3290932,0,0,1.046425,-94.82817,-14.102692)" />
    <path
       style="opacity:0.9;fill:#808080;fill-opacity:1;stroke:none;stroke-width:0.33364525px;stroke-linecap:butt;stroke-linejoin:miter;stroke-opacity:1;filter:url(#filter14844)"
       d="m 128.26913,235.01743 c 0,0 8.63704,14.88849 10.36778,23.55174 2.0289,5.80404 -6.56382,3.13655 -11.80082,40.75806 l -18.19182,-0.21283 c 0,0 8.42523,-6.42496 7.99709,-17.4665 -0.88083,-22.71621 16.50826,-17.42933 3.81647,-32.2138 -8.76831,-10.21407 7.8113,-14.41667 7.8113,-14.41667 z"
       id="path11313"
       inkscape:connector-curvature="0"
       sodipodi:nodetypes="ccccssc"
       transform="matrix(1.3455419,0,0,1.046425,-99.046418,-13.320029)" />
    <path
       style="opacity:0.9;fill:#c4c4c4;fill-opacity:1;stroke:none;stroke-width:0.30177745px;stroke-linecap:butt;stroke-linejoin:miter;stroke-opacity:1;filter:url(#filter17458)"
       d="m 124.05578,221.98717 c 0,0 2.47008,3.76215 3.24199,2.70876 0.7719,-1.05341 15.12925,2.40777 15.74677,2.40777 0.61752,0 9.10842,7.22333 9.10842,7.22333 0,0 -8.33653,9.48061 -7.87338,10.6845 0.46314,1.20389 -4.16826,8.12625 -3.24198,10.83499 0.92628,2.70876 -11.11537,-1.95631 -13.43107,-0.60194 -2.31571,1.35438 -5.55769,-3.46118 -10.03472,0.15049 -4.47701,3.61166 -10.6522,6.77187 -12.04163,7.22333 -1.38941,0.45145 -6.020827,-3.61167 -5.09453,-4.51459 0.92626,-0.9029 -1.852591,1.65535 -2.470113,1.20389 -0.61751,-0.45145 -3.859493,-3.76215 -3.55072,-4.81555 0.308738,-1.05339 -0.154386,-0.90291 3.55072,-4.81555 3.705153,-3.91264 4.631403,-2.70875 5.403313,-4.51458 -1.90325,-8.26619 6.26807,-11.3781 11.88728,-18.05832 2.62445,-3.16021 8.79965,-5.11653 8.79965,-5.11653 z"
       id="path11309"
       inkscape:connector-curvature="0"
       sodipodi:nodetypes="ccsccccscccccccc"
       transform="matrix(1.046425,0,0,1.046425,-57.497669,-13.320029)" />
    <path
       style="opacity:0.9;fill:#3b3b3b;fill-opacity:1;stroke:none;stroke-width:0.30177745px;stroke-linecap:butt;stroke-linejoin:miter;stroke-opacity:1;filter:url(#filter17454)"
       d="m 5.0648303,237.91193 141.4121797,20.76706 2.47008,2.10681 24.0833,3.91263 2.47009,-1.20389 114.68866,16.74607 0.23441,-2.54447 -114.49852,-17.77564 -1.50521,-1.54248 -24.23768,-3.91263 -3.08761,0.75242 L 4.7560583,234.9022 Z"
       id="path11315"
       inkscape:connector-curvature="0"
       sodipodi:nodetypes="ccccccccccccc"
       transform="matrix(1.046425,0,0,1.046425,-57.497669,-13.320029)" />
    <path
       style="opacity:0.9;fill:#808080;fill-opacity:1;stroke:none;stroke-width:0.30177745px;stroke-linecap:butt;stroke-linejoin:miter;stroke-opacity:1;filter:url(#filter17450)"
       d="m 131.9235,197.28837 c -0.98083,0.15935 1.15163,9.60259 2.18327,11.06661 -0.43665,1.70254 1.09164,9.36404 1.09164,9.36404 l 2.83823,5.10767 c 0,0 12.66294,17.45118 12.88128,21.28194 1.52776,2.55435 3.50682,5.0944 3.2749,7.44867 -0.18898,1.91835 0.87329,3.61793 1.09162,4.46921 0.21834,0.85127 -0.6004,4.89485 -0.43666,5.37369 0.16374,0.47884 0.98247,1.70523 1.2008,1.49241 0.79725,-0.0624 1.91036,-1.11998 2.01951,-0.80075 0.10917,0.31923 1.2008,1.0641 1.8558,0.47884 0.65496,-0.58525 1.52829,1.91538 2.29242,1.48974 0.76415,-0.42563 1.03704,-0.31923 2.12869,-0.15961 1.09162,0.15961 5.23982,-4.89484 5.18524,-5.4269 -0.0545,-0.53205 0.16376,-3.2987 -0.16375,-3.40511 -0.32749,-0.10642 -3.98445,-4.3096 -3.98445,-4.68202 0,-0.37243 -14.97928,-36.74117 -15.21084,-37.79457 -0.23157,-1.0534 2.16582,-9.87697 1.83834,-13.06926 -0.32749,-3.19229 4.80319,-8.29995 0.10917,-15.74864 -4.67033,-7.45792 -5.80415,-9.54104 -6.22231,-9.63006 -0.44173,0 -15.5012,15.69541 -13.97291,23.1441 z"
       id="path11301"
       inkscape:connector-curvature="0"
       sodipodi:nodetypes="cccccscscccccccssccccc"
       transform="matrix(1.046425,0,0,1.046425,-57.497669,-13.320029)" />
    <path
       style="opacity:0.9;fill:#323232;fill-opacity:1;stroke:none;stroke-width:0.30177745px;stroke-linecap:butt;stroke-linejoin:miter;stroke-opacity:1;filter:url(#filter17446)"
       d="m 138.03664,222.82669 c 0,0 9.93934,5.18291 11.13466,7.44868 1.72666,1.52849 5.87073,-1.79706 4.89362,-7.41438 0.49423,-3.26123 10.15964,28.19427 11.91752,27.41939 0,0 -5.45818,2.76666 -6.5498,2.34102 -1.09162,-0.42564 -4.36653,-3.40511 -5.23985,-2.12819 -0.8733,1.27691 0.38901,-4.41818 -9.16971,-13.83327 -6.89891,-6.79525 -6.9044,-13.76719 -6.98644,-13.83325 z"
       id="path11307"
       inkscape:connector-curvature="0"
       sodipodi:nodetypes="ccccscsc"
       transform="matrix(1.046425,0,0,1.046425,-57.497669,-13.320029)" />
    <ellipse
       style="opacity:0.9;fill:#5d5d5d;fill-opacity:1;stroke:none;stroke-width:0.26458332;stroke-opacity:1;filter:url(#filter13144)"
       id="path13026"
       cx="407.58603"
       cy="110.71314"
       rx="84.724442"
       ry="84.189903" />
  </g>
</svg>
