<?xml version="1.0" encoding="UTF-8" standalone="no"?>
<!-- Created with Inkscape (http://www.inkscape.org/) -->

<svg
   xmlns:dc="http://purl.org/dc/elements/1.1/"
   xmlns:cc="http://creativecommons.org/ns#"
   xmlns:rdf="http://www.w3.org/1999/02/22-rdf-syntax-ns#"
   xmlns:svg="http://www.w3.org/2000/svg"
   xmlns="http://www.w3.org/2000/svg"
   xmlns:sodipodi="http://sodipodi.sourceforge.net/DTD/sodipodi-0.dtd"
   xmlns:inkscape="http://www.inkscape.org/namespaces/inkscape"
   width="550mm"
   height="297mm"
   viewBox="0 0 550 297"
   version="1.1"
   id="svg8"
   inkscape:version="0.92.3 (2405546, 2018-03-11)"
   sodipodi:docname="login_img.svg">
  <defs
     id="defs2">
    <filter
       inkscape:collect="always"
       style="color-interpolation-filters:sRGB"
       id="filter9109"
       x="-0.015289988"
       width="1.03058"
       y="-0.016766593"
       height="1.0335332">
      <feGaussianBlur
         inkscape:collect="always"
         stdDeviation="1.6952473"
         id="feGaussianBlur9111" />
    </filter>
    <filter
       inkscape:collect="always"
       style="color-interpolation-filters:sRGB"
       id="filter9113"
       x="-0.13949427"
       width="1.2789885"
       y="-0.148821"
       height="1.297642">
      <feGaussianBlur
         inkscape:collect="always"
         stdDeviation="1.6952473"
         id="feGaussianBlur9115" />
    </filter>
    <filter
       inkscape:collect="always"
       style="color-interpolation-filters:sRGB"
       id="filter9117"
       x="-0.084765248"
       width="1.1695305"
       y="-0.019189663"
       height="1.0383793">
      <feGaussianBlur
         inkscape:collect="always"
         stdDeviation="1.6952473"
         id="feGaussianBlur9119" />
    </filter>
    <filter
       inkscape:collect="always"
       style="color-interpolation-filters:sRGB"
       id="filter9121"
       x="-0.12482529"
       width="1.2496506"
       y="-0.1320755"
       height="1.264151">
      <feGaussianBlur
         inkscape:collect="always"
         stdDeviation="1.6952473"
         id="feGaussianBlur9123" />
    </filter>
    <filter
       inkscape:collect="always"
       style="color-interpolation-filters:sRGB"
       id="filter9125"
       x="-0.05691639"
       width="1.1138328"
       y="-0.081168331"
       height="1.1623367">
      <feGaussianBlur
         inkscape:collect="always"
         stdDeviation="1.6952473"
         id="feGaussianBlur9127" />
    </filter>
    <filter
       inkscape:collect="always"
       style="color-interpolation-filters:sRGB"
       id="filter9129"
       x="-0.04466984"
       width="1.0893397"
       y="-0.053336639"
       height="1.1066732">
      <feGaussianBlur
         inkscape:collect="always"
         stdDeviation="1.6952473"
         id="feGaussianBlur9131" />
    </filter>
    <filter
       inkscape:collect="always"
       style="color-interpolation-filters:sRGB"
       id="filter9133"
       x="-0.035325363"
       width="1.0706507"
       y="-0.024785697"
       height="1.0495714">
      <feGaussianBlur
         inkscape:collect="always"
         stdDeviation="1.6952473"
         id="feGaussianBlur9135" />
    </filter>
    <filter
       inkscape:collect="always"
       style="color-interpolation-filters:sRGB"
       id="filter9137"
       x="-0.056508742"
       width="1.1130176"
       y="-0.046032462"
       height="1.0920649">
      <feGaussianBlur
         inkscape:collect="always"
         stdDeviation="1.6952473"
         id="feGaussianBlur9139" />
    </filter>
    <filter
       inkscape:collect="always"
       style="color-interpolation-filters:sRGB"
       id="filter10189"
       x="-0.072412901"
       width="1.1448258"
       y="-0.074004397"
       height="1.1480088">
      <feGaussianBlur
         inkscape:collect="always"
         stdDeviation="4.2424048"
         id="feGaussianBlur10191" />
    </filter>
    <filter
       inkscape:collect="always"
       style="color-interpolation-filters:sRGB"
       id="filter15638"
       x="-0.086709567"
       width="1.1734191"
       y="-0.11373394"
       height="1.2274679">
      <feGaussianBlur
         inkscape:collect="always"
         stdDeviation="1.0911474"
         id="feGaussianBlur15640" />
    </filter>
  </defs>
  <sodipodi:namedview
     id="base"
     pagecolor="#ffffff"
     bordercolor="#666666"
     borderopacity="1.0"
     inkscape:pageopacity="0.0"
     inkscape:pageshadow="2"
     inkscape:zoom="0.49497475"
     inkscape:cx="1396.8633"
     inkscape:cy="453.9266"
     inkscape:document-units="mm"
     inkscape:current-layer="layer1"
     showgrid="false"
     inkscape:window-width="1920"
     inkscape:window-height="1057"
     inkscape:window-x="0"
     inkscape:window-y="0"
     inkscape:window-maximized="1" />
  <metadata
     id="metadata5">
    <rdf:RDF>
      <cc:Work
         rdf:about="">
        <dc:format>image/svg+xml</dc:format>
        <dc:type
           rdf:resource="http://purl.org/dc/dcmitype/StillImage" />
        <dc:title></dc:title>
      </cc:Work>
    </rdf:RDF>
  </metadata>
  <g
     inkscape:label="Layer 1"
     inkscape:groupmode="layer"
     id="layer1">
    <path
       style="fill:#8f8f8f;fill-opacity:0.66803277;stroke:none;stroke-width:0.26458332px;stroke-linecap:butt;stroke-linejoin:miter;stroke-opacity:1;filter:url(#filter15638)"
       d="m 404.15738,112.2519 c 0,18.70886 3.66008,14.11941 1.33636,20.84702 -2.32373,6.72761 28.86508,-4.27632 28.86508,-4.27632 0,0 -7.75081,-10.69078 -7.48352,-12.56166 0.26725,-1.87089 -22.71792,-4.00904 -22.71792,-4.00904 z"
       id="path14888"
       inkscape:connector-curvature="0" />
    <path
       style="fill:#8f8f8f;fill-opacity:1;stroke:none;stroke-width:0.26458332px;stroke-linecap:butt;stroke-linejoin:miter;stroke-opacity:1;filter:url(#filter9137)"
       d="m 389.85007,100.09298 c 0,0 3.70615,3.24462 3.36956,7.45648 0,0 -11.20406,4.47186 -11.03767,6.72082 0.7894,10.66958 3.20004,29.30352 1.92412,31.85051 -2.4128,4.81643 25.25697,-18.8425 25.25697,-18.8425 0,0 -6.01356,-10.42351 -4.54358,-12.42804 1.46998,-2.00452 33.89317,5.09024 38.48681,9.2208 2.33659,2.10105 -1.61876,-4.89911 -6.68174,-5.07812 -4.14309,-0.14648 4.28423,-3.78564 2.60588,-17.97386 -0.0882,-0.74539 5.54585,-0.13364 5.54585,-0.13364 0,0 13.51603,-59.030649 -58.06906,-37.957001 -1.98916,0.58558 5.14969,10.094167 5.14969,10.094167 0,0 2.27179,2.004527 -1.46998,4.677217 -2.24733,2.751347 -5.86924,-8.319957 -7.75082,-8.418987 0,0 -10.22296,45.040444 -8.68626,53.453884 0.28344,1.55184 1.83324,-1.22585 5.85464,-3.66189 0,0 -1.4015,-8.27675 0.25382,-12.11453 2.11868,-4.91203 9.28687,-6.67914 9.79177,-6.86531 z"
       id="path6885"
       inkscape:connector-curvature="0"
       sodipodi:nodetypes="cssscsssscscccsssc" />
    <path
       style="fill:#8f8f8f;fill-opacity:1;stroke:none;stroke-width:0.26458332px;stroke-linecap:butt;stroke-linejoin:miter;stroke-opacity:1;filter:url(#filter9133)"
       d="M 388.15226,61.976092 371.61398,33.821067 c -2.16747,-0.30614 106.19612,-37.3080881 99.157,64.946499 -0.52513,7.628384 29.13754,22.855024 8.92503,91.360374 -2.95576,10.0178 -12.24656,-53.19986 -14.69612,-57.19315 -10.24207,-16.6967 -5.73693,-20.11758 -18.17247,-32.29633 -4.07568,-3.991519 11.61063,-55.198109 -58.67516,-38.662368 z"
       id="path6887"
       inkscape:connector-curvature="0"
       sodipodi:nodetypes="ccssssc" />
    <path
       style="fill:#8f8f8f;fill-opacity:0.66666667;stroke:none;stroke-width:0.26458332px;stroke-linecap:butt;stroke-linejoin:miter;stroke-opacity:1;filter:url(#filter9129)"
       d="m 411.89818,130.26968 c 0,0 -10.22348,4.19679 -7.32698,11.53844 0.91733,2.32513 -14.89277,10.21149 1.87088,19.51068 26.5092,14.70526 49.97611,39.72581 49.44487,42.22858 -0.32359,1.52447 33.89181,-9.03574 33.89181,-9.03574 0,0 -19.83784,-67.76141 -53.55905,-67.09022 -8.54054,0.17 -24.32153,2.84826 -24.32153,2.84826 z"
       id="path6891"
       inkscape:connector-curvature="0"
       sodipodi:nodetypes="cssscsc" />
    <path
       style="fill:#8f8f8f;fill-opacity:0.94117647;stroke:none;stroke-width:0.26458332px;stroke-linecap:butt;stroke-linejoin:miter;stroke-opacity:1;filter:url(#filter9125)"
       d="m 403.92595,140.96046 c 0,0 2.6727,6.41447 8.55263,-0.26727 5.87993,-6.68174 26.99422,24.5888 25.65787,27.79603 -1.33635,3.20724 36.61593,8.8199 36.61593,8.8199 0,0 -4.00905,-16.30344 -4.27632,-20.31249 -0.26727,-4.00904 -28.86511,-32.07234 -36.61592,-29.66692 -7.75082,2.40543 -15.50163,-2.93996 -22.18337,2.13816 -6.68174,5.07812 -9.88898,7.21628 -7.75082,11.49259 z"
       id="path6893"
       inkscape:connector-curvature="0" />
    <path
       style="fill:#8f8f8f;fill-opacity:0.66666667;stroke:none;stroke-width:0.26458332px;stroke-linecap:butt;stroke-linejoin:miter;stroke-opacity:1;filter:url(#filter9121)"
       d="m 371.02382,145.3276 c 0,0 -6.4256,3.02381 -6.2366,15.11904 8.01712,5.0911 21.45729,15.08779 20.78868,15.68602 0,0 8.12648,-19.65477 11.52827,-17.95387 3.40178,1.70089 -26.08035,-12.85119 -26.08035,-12.85119 z"
       id="path6895"
       inkscape:connector-curvature="0"
       sodipodi:nodetypes="cccsc" />
    <path
       style="fill:#8f8f8f;fill-opacity:0.66666667;stroke:none;stroke-width:0.26458332px;stroke-linecap:butt;stroke-linejoin:miter;stroke-opacity:1;filter:url(#filter9117)"
       d="m 360.2515,207.88266 -41.15951,-208.47022624 6.1472,-0.26728 41.85117,212.02006624 z"
       id="path6897"
       inkscape:connector-curvature="0" />
    <path
       style="fill:#8f8f8f;fill-opacity:0.95294118;stroke:none;stroke-width:0.26458332px;stroke-linecap:butt;stroke-linejoin:miter;stroke-opacity:1;filter:url(#filter9113)"
       d="m 364.78722,160.44664 c 0,0 -11.80433,2.59302 -16.30344,-1.8709 -2.56199,-4.08593 -1.15718,-4.72109 -1.15718,-4.72109 0,0 -3.26651,-1.17488 -1.79539,-3.92152 1.10876,-2.07008 -3.26454,-0.9435 -1.93712,-4.01598 1.32291,-3.07107 1.03943,-1.22843 1.08668,-2.07888 0.0472,-0.85045 -3.16944,-1.18215 -2.78758,-3.40178 2.58742,-3.03403 0.0819,-4.27305 0.85045,-5.81138 1.46465,-1.44103 13.41815,-0.56698 14.55208,0.28347 1.13393,0.85045 14.01159,9.2851 13.7281,10.41902 -0.28348,1.13393 -6.0765,1.50577 -6.2366,15.11904 z"
       id="path6899"
       inkscape:connector-curvature="0"
       sodipodi:nodetypes="cccsccccccc" />
    <ellipse
       style="opacity:1;fill:#a2a2a2;fill-opacity:1;stroke:none;stroke-width:0.26458332;stroke-opacity:1;filter:url(#filter9109)"
       id="path6889"
       cx="319.76785"
       cy="291.33035"
       rx="133.04764"
       ry="121.33036"
       transform="matrix(0.88645358,0,0,0.92221699,139.496,-0.01802044)" />
    <ellipse
       style="opacity:1;fill:#8f8f8f;fill-opacity:1;stroke:none;stroke-width:0.26458332;stroke-opacity:1;filter:url(#filter10189)"
       id="path9143"
       cx="322.03571"
       cy="276.58929"
       rx="70.303574"
       ry="68.791664"
       transform="matrix(1.3383521,0,0,1.3347994,-8.4197877,-104.69717)" />
  </g>
</svg>
